<svg width="143" height="21" viewBox="0 0 143 21" fill="none" xmlns="http://www.w3.org/2000/svg">
<g clip-path="url(#clip0_13981_187838)">
<mask id="path-2-inside-1_13981_187838" fill="white">
<path d="M0 4.04883H99.9925V16.9511H0V4.04883Z"/>
</mask>
<g clip-path="url(#clip1_13981_187838)">
<path d="M27.0861 14.6743L25.3691 7.45117H27.1406L28.2986 12.971L29.5661 7.45117H31.787L33.0545 12.9844L34.2002 7.45117H35.985L34.2516 14.6743H31.896L30.6835 8.99095L29.4571 14.6743H27.0861Z" fill="#2C1DFF"/>
<path d="M40.0853 14.7852C39.0675 14.7852 38.1954 14.4171 37.469 13.681C36.7426 12.9449 36.3792 12.0682 36.3789 11.0509C36.3789 10.0244 36.7423 9.14774 37.469 8.42088C38.1958 7.69402 39.0679 7.33042 40.0853 7.33008C41.1117 7.33008 41.9882 7.69591 42.715 8.42757C43.4417 9.15923 43.8051 10.0335 43.8051 11.0504C43.8051 12.079 43.4417 12.9581 42.715 13.6877C41.9882 14.4173 41.1117 14.7831 40.0853 14.7852ZM40.0853 13.1631C40.3603 13.1684 40.6333 13.116 40.8868 13.0093C41.1403 12.9025 41.3686 12.7438 41.557 12.5434C41.7513 12.3473 41.9044 12.1144 42.0074 11.8583C42.1104 11.6021 42.1611 11.328 42.1566 11.052C42.161 10.776 42.1103 10.5018 42.0073 10.2457C41.9043 9.9896 41.7512 9.75665 41.557 9.56054C41.3668 9.36414 41.139 9.20799 40.8873 9.10134C40.6355 8.9947 40.3649 8.93974 40.0915 8.93974C39.8181 8.93974 39.5475 8.9947 39.2957 9.10134C39.044 9.20799 38.8162 9.36414 38.626 9.56054C38.4317 9.75658 38.2785 9.98952 38.1755 10.2457C38.0725 10.5018 38.0219 10.776 38.0264 11.052C38.0218 11.328 38.0725 11.6022 38.1754 11.8583C38.2784 12.1145 38.4316 12.3474 38.626 12.5434C38.8124 12.743 39.0386 12.9012 39.29 13.008C39.5414 13.1147 39.8123 13.1676 40.0853 13.1631V13.1631Z" fill="#2C1DFF"/>
<path d="M48.3021 14.7852C47.2847 14.7852 46.4126 14.4171 45.6858 13.681C44.9591 12.9449 44.5957 12.0682 44.5957 11.0509C44.5957 10.0244 44.9591 9.14774 45.6858 8.42088C46.4126 7.69402 47.2847 7.33042 48.3021 7.33008C49.3285 7.33008 50.2052 7.69591 50.9323 8.42757C51.6594 9.15923 52.0228 10.0335 52.0224 11.0504C52.0224 12.079 51.659 12.9581 50.9323 13.6877C50.2056 14.4173 49.3288 14.7831 48.3021 14.7852ZM48.3021 13.1631C48.5771 13.1684 48.8501 13.116 49.1036 13.0093C49.3571 12.9025 49.5854 12.7438 49.7738 12.5434C49.9681 12.3473 50.1212 12.1144 50.2242 11.8583C50.3272 11.6021 50.3779 11.328 50.3734 11.052C50.3778 10.776 50.3271 10.5018 50.2241 10.2457C50.1211 9.9896 49.968 9.75665 49.7738 9.56054C49.5836 9.36408 49.3559 9.20786 49.1041 9.10118C48.8523 8.99449 48.5817 8.93952 48.3083 8.93952C48.0349 8.93952 47.7642 8.99449 47.5125 9.10118C47.2607 9.20786 47.033 9.36408 46.8428 9.56054C46.6484 9.75658 46.4953 9.98952 46.3923 10.2457C46.2893 10.5018 46.2387 10.776 46.2432 11.052C46.2386 11.328 46.2893 11.6022 46.3922 11.8583C46.4952 12.1145 46.6484 12.3474 46.8428 12.5434C47.0291 12.7431 47.2553 12.9015 47.5067 13.0083C47.758 13.115 48.0291 13.1678 48.3021 13.1631V13.1631Z" fill="#2C1DFF"/>
<path d="M56.4239 14.7838C55.4428 14.7838 54.6002 14.4158 53.896 13.6796C53.1919 12.9435 52.8398 12.0715 52.8398 11.0635C52.8398 10.0184 53.1897 9.13472 53.8893 8.41232C54.589 7.68992 55.4339 7.32872 56.4239 7.32872C57.3045 7.32872 58.0267 7.63317 58.5902 8.24209V5.13477H60.3622V14.6748H58.5902V13.8977C58.0184 14.4888 57.2963 14.7842 56.4239 14.7838ZM56.6008 13.1756C57.1733 13.1756 57.6684 12.9667 58.0863 12.5487C58.5042 12.1308 58.7131 11.6357 58.7131 11.0635C58.7131 10.4906 58.5042 9.99341 58.0863 9.57204C57.6684 9.15066 57.1733 8.93929 56.6008 8.93792C56.3222 8.93246 56.0455 8.98548 55.7887 9.09355C55.5318 9.20162 55.3005 9.36234 55.1096 9.56535C54.9134 9.76199 54.7586 9.99598 54.6544 10.2535C54.5502 10.511 54.4986 10.7867 54.5028 11.0645C54.4985 11.3411 54.55 11.6158 54.6542 11.8721C54.7585 12.1283 54.9133 12.3609 55.1096 12.5559C55.3016 12.757 55.5333 12.9159 55.79 13.0225C56.0468 13.1292 56.3228 13.1814 56.6008 13.1756V13.1756Z" fill="#2C1DFF"/>
<path d="M65.3209 14.7849C64.2852 14.7849 63.4063 14.4193 62.684 13.6879C61.9617 12.9566 61.6007 12.0823 61.6011 11.0651C61.6011 10.02 61.9667 9.13633 62.6979 8.41392C63.4291 7.69152 64.3032 7.33032 65.3203 7.33032C66.0652 7.32156 66.7934 7.55093 67.3988 7.98501C68.0013 8.40775 68.4638 9.00088 68.727 9.68833L67.1088 10.1373C66.9529 9.78445 66.7041 9.48063 66.3889 9.25838C66.0768 9.03643 65.7022 8.91954 65.3193 8.92461C65.0453 8.92077 64.7736 8.97528 64.5223 9.08452C64.2709 9.19376 64.0457 9.35523 63.8615 9.55821C63.6675 9.75754 63.5146 9.99319 63.4118 10.2517C63.3089 10.5101 63.258 10.7864 63.262 11.0646C63.2576 11.3416 63.3084 11.6168 63.4113 11.8741C63.5142 12.1314 63.6673 12.3656 63.8615 12.5632C64.0466 12.7646 64.2722 12.9246 64.5234 13.0327C64.7746 13.1408 65.0458 13.1947 65.3193 13.1906C65.7068 13.1971 66.0863 13.08 66.4028 12.8563C66.7165 12.6361 66.9613 12.3313 67.1088 11.9774L68.7301 12.4403C68.4681 13.1268 68.0052 13.7183 67.4019 14.1374C66.7941 14.5678 66.0655 14.7945 65.3209 14.7849V14.7849Z" fill="#2C1DFF"/>
<path d="M73.2518 14.7852C72.2344 14.7852 71.3623 14.4171 70.6355 13.681C69.9088 12.9449 69.5454 12.0682 69.5454 11.0509C69.5454 10.0244 69.9088 9.14774 70.6355 8.42088C71.3623 7.69402 72.2344 7.33042 73.2518 7.33008C74.2782 7.33008 75.1549 7.69591 75.882 8.42757C76.6091 9.15923 76.9723 10.0335 76.9716 11.0504C76.9716 12.079 76.6084 12.9581 75.882 13.6877C75.1556 14.4173 74.2789 14.7831 73.2518 14.7852ZM73.2518 13.1631C73.5268 13.1684 73.7999 13.116 74.0533 13.0093C74.3068 12.9025 74.5351 12.7438 74.7235 12.5434C74.9178 12.3473 75.0709 12.1144 75.1739 11.8583C75.2769 11.6021 75.3276 11.328 75.3231 11.052C75.3275 10.776 75.2768 10.5018 75.1738 10.2457C75.0709 9.9896 74.9177 9.75665 74.7235 9.56054C74.5333 9.36408 74.3056 9.20786 74.0538 9.10118C73.802 8.99449 73.5314 8.93952 73.258 8.93952C72.9846 8.93952 72.7139 8.99449 72.4622 9.10118C72.2104 9.20786 71.9827 9.36408 71.7925 9.56054C71.5982 9.75658 71.445 9.98952 71.342 10.2457C71.239 10.5018 71.1884 10.776 71.1929 11.052C71.1883 11.328 71.239 11.6022 71.3419 11.8583C71.4449 12.1145 71.5981 12.3474 71.7925 12.5434C71.9788 12.7431 72.205 12.9015 72.4564 13.0083C72.7078 13.115 72.9788 13.1678 73.2518 13.1631V13.1631Z" fill="#2C1DFF"/>
<path d="M77.9941 14.6744V7.45121H79.7656V8.52761C80.0047 8.11555 80.3669 7.78876 80.8012 7.59315C81.2551 7.37955 81.8092 7.32281 82.4636 7.42292V9.31859C81.7825 9.09127 81.1625 9.14116 80.6038 9.46824C80.045 9.79533 79.7656 10.3041 79.7656 10.9947V14.6744H77.9941Z" fill="#2C1DFF"/>
<path d="M86.5919 14.7848C85.5562 14.7848 84.6775 14.4192 83.9555 13.6879C83.2336 12.9566 82.8724 12.0823 82.8721 11.065C82.8721 10.02 83.2377 9.13626 83.9689 8.41386C84.7001 7.69145 85.5742 7.33025 86.5913 7.33025C87.4588 7.32169 88.2996 7.62938 88.9567 8.1958C89.6243 8.74173 90.076 9.50737 90.2309 10.3558C90.3398 10.8031 90.3443 11.2694 90.2443 11.7187H84.6296C84.7301 12.1911 84.9572 12.5592 85.311 12.8228C85.6647 13.0865 86.0917 13.2182 86.5919 13.2178C87.346 13.2178 87.9631 12.968 88.443 12.4685L89.9964 12.8912C89.715 13.4631 89.2495 13.9219 88.5998 14.2675C87.9838 14.604 87.2937 14.7818 86.5919 14.7848V14.7848ZM84.6296 10.3717H88.5135C88.4152 9.9567 88.1796 9.58701 87.845 9.3226C87.4998 9.04077 87.0774 8.89986 86.578 8.89986C86.0785 8.89986 85.6538 9.04077 85.3038 9.3226C84.9664 9.58554 84.7286 9.95558 84.6296 10.3717V10.3717Z" fill="#2C1DFF"/>
<path d="M10.7806 11.8051H7.80948L11.666 5.125H8.69494L7.80948 6.6586L4.83838 6.65809L7.80948 11.8051L10.7806 16.9521L13.7517 11.8051L16.7228 16.9521L23.5504 5.125H20.5793L16.7228 11.8051H13.7517L17.6082 5.125H14.6371L10.7806 11.8051Z" fill="#2C1DFF"/>
</g>
</g>
<path d="M99.4549 4.04883V16.9511H100.53V4.04883H99.4549Z" fill="#BECCFF" mask="url(#path-2-inside-1_13981_187838)"/>
<path d="M106.658 8.37H107.126C108.086 8.37 108.548 7.818 108.548 6.87V6.822C108.548 5.898 108.128 5.34 107.12 5.34H106.658V8.37ZM105.86 9V4.71H107.162C108.656 4.71 109.382 5.562 109.382 6.81V6.864C109.382 8.112 108.656 9 107.15 9H105.86ZM111.463 9.06C110.539 9.06 109.873 8.454 109.873 7.464V7.416C109.873 6.444 110.539 5.796 111.433 5.796C112.213 5.796 112.915 6.258 112.915 7.38V7.59H110.617C110.641 8.184 110.941 8.52 111.481 8.52C111.919 8.52 112.147 8.346 112.201 8.04H112.903C112.801 8.7 112.267 9.06 111.463 9.06ZM110.629 7.104H112.195C112.159 6.564 111.883 6.324 111.433 6.324C110.995 6.324 110.701 6.618 110.629 7.104ZM114.327 9L113.181 5.862H113.961L114.783 8.256L115.593 5.862H116.307L115.173 9H114.327ZM118.108 9.06C117.184 9.06 116.518 8.454 116.518 7.464V7.416C116.518 6.444 117.184 5.796 118.078 5.796C118.858 5.796 119.56 6.258 119.56 7.38V7.59H117.262C117.286 8.184 117.586 8.52 118.126 8.52C118.564 8.52 118.792 8.346 118.846 8.04H119.548C119.446 8.7 118.912 9.06 118.108 9.06ZM117.274 7.104H118.84C118.804 6.564 118.528 6.324 118.078 6.324C117.64 6.324 117.346 6.618 117.274 7.104ZM120.226 9V4.41H120.952V9H120.226ZM123.241 8.496C123.781 8.496 124.105 8.094 124.105 7.452V7.41C124.105 6.762 123.781 6.366 123.241 6.366C122.701 6.366 122.371 6.756 122.371 7.404V7.452C122.371 8.094 122.689 8.496 123.241 8.496ZM123.235 9.06C122.311 9.06 121.627 8.418 121.627 7.464V7.416C121.627 6.444 122.317 5.796 123.241 5.796C124.159 5.796 124.849 6.438 124.849 7.398V7.446C124.849 8.424 124.159 9.06 123.235 9.06ZM125.505 10.074V5.862H126.231V6.366C126.405 6.066 126.795 5.796 127.257 5.796C128.043 5.796 128.649 6.378 128.649 7.392V7.44C128.649 8.448 128.067 9.06 127.257 9.06C126.759 9.06 126.399 8.814 126.231 8.508V10.074H125.505ZM127.077 8.484C127.611 8.484 127.905 8.124 127.905 7.452V7.404C127.905 6.708 127.545 6.366 127.071 6.366C126.567 6.366 126.207 6.708 126.207 7.404V7.452C126.207 8.154 126.549 8.484 127.077 8.484ZM130.682 9.06C129.758 9.06 129.092 8.454 129.092 7.464V7.416C129.092 6.444 129.758 5.796 130.652 5.796C131.432 5.796 132.134 6.258 132.134 7.38V7.59H129.836C129.86 8.184 130.16 8.52 130.7 8.52C131.138 8.52 131.366 8.346 131.42 8.04H132.122C132.02 8.7 131.486 9.06 130.682 9.06ZM129.848 7.104H131.414C131.378 6.564 131.102 6.324 130.652 6.324C130.214 6.324 129.92 6.618 129.848 7.104ZM132.783 9V5.862H133.509V6.45C133.707 6.054 134.001 5.82 134.529 5.814V6.492C133.893 6.498 133.509 6.702 133.509 7.368V9H132.783ZM105.86 16V11.71H107.24C108.2 11.71 108.83 12.136 108.83 13.036V13.06C108.83 13.966 108.176 14.368 107.258 14.368H106.658V16H105.86ZM106.658 13.792H107.24C107.768 13.792 108.05 13.534 108.05 13.06V13.036C108.05 12.526 107.75 12.328 107.24 12.328H106.658V13.792ZM110.773 15.496C111.313 15.496 111.637 15.094 111.637 14.452V14.41C111.637 13.762 111.313 13.366 110.773 13.366C110.233 13.366 109.903 13.756 109.903 14.404V14.452C109.903 15.094 110.221 15.496 110.773 15.496ZM110.767 16.06C109.843 16.06 109.159 15.418 109.159 14.464V14.416C109.159 13.444 109.849 12.796 110.773 12.796C111.691 12.796 112.381 13.438 112.381 14.398V14.446C112.381 15.424 111.691 16.06 110.767 16.06ZM113.036 16V12.862H113.762V13.45C113.96 13.054 114.254 12.82 114.782 12.814V13.492C114.146 13.498 113.762 13.702 113.762 14.368V16H113.036ZM116.519 16.054C115.895 16.054 115.571 15.718 115.571 15.124V13.408H115.151V12.862H115.571V12.172H116.297V12.862H116.987V13.408H116.297V15.058C116.297 15.334 116.429 15.46 116.657 15.46C116.801 15.46 116.909 15.442 117.011 15.4V15.976C116.897 16.018 116.741 16.054 116.519 16.054ZM118.517 16.06C117.941 16.06 117.467 15.784 117.467 15.13C117.467 14.398 118.175 14.134 119.075 14.134H119.465V13.972C119.465 13.552 119.321 13.342 118.895 13.342C118.517 13.342 118.331 13.522 118.295 13.834H117.593C117.653 13.102 118.235 12.796 118.937 12.796C119.639 12.796 120.191 13.084 120.191 13.942V16H119.477V15.616C119.273 15.886 118.997 16.06 118.517 16.06ZM118.691 15.538C119.135 15.538 119.465 15.304 119.465 14.902V14.59H119.093C118.541 14.59 118.187 14.716 118.187 15.1C118.187 15.364 118.331 15.538 118.691 15.538ZM121.041 16V11.41H121.767V16H121.041Z" fill="#6E7BFF"/>
<defs>
<clipPath id="clip0_13981_187838">
<path d="M0 4.04883H99.9925V16.9511H0V4.04883Z" fill="white"/>
</clipPath>
<clipPath id="clip1_13981_187838">
<rect width="85.4774" height="11.8271" fill="white" transform="translate(4.83838 5.12305)"/>
</clipPath>
</defs>
</svg>
